<?xml version="1.0" encoding="UTF-8" standalone="no"?>
<!DOCTYPE svg PUBLIC "-//W3C//DTD SVG 1.1//EN" "http://www.w3.org/Graphics/SVG/1.1/DTD/svg11.dtd">
<svg width="100%" height="100%" viewBox="0 0 1890 1086" version="1.1" xmlns="http://www.w3.org/2000/svg" xmlns:xlink="http://www.w3.org/1999/xlink" xml:space="preserve" xmlns:serif="http://www.serif.com/" style="fill-rule:evenodd;clip-rule:evenodd;stroke-linecap:round;stroke-linejoin:round;stroke-miterlimit:1.5;">
    <g transform="matrix(0.888676,0,0,0.801704,-157.443,-1585.2)">
        <rect id="ArtBoard1" x="177.165" y="1977.29" width="2125.98" height="1353.42" style="fill:none;"/>
        <clipPath id="_clip1">
            <rect id="ArtBoard11" serif:id="ArtBoard1" x="177.165" y="1977.29" width="2125.98" height="1353.42"/>
        </clipPath>
        <g clip-path="url(#_clip1)">
            <g transform="matrix(1.12527,0,0,1.24734,177.165,1977.29)">
                <rect x="-16.526" y="0" width="2083.17" height="1490.84" style="fill:white;"/>
            </g>
            <g transform="matrix(1.12527,0,-3.46751e-33,1.24734,-109.588,49.8858)">
                <rect x="1454.89" y="2496.4" width="25.344" height="20.909" style="fill:rgb(212,226,247);"/>
                <path d="M1484.4,2496.4L1484.4,2517.3C1484.4,2519.61 1482.53,2521.47 1480.23,2521.47L1454.89,2521.47C1452.59,2521.47 1450.72,2519.61 1450.72,2517.3L1450.72,2496.4C1450.72,2494.1 1452.59,2492.23 1454.89,2492.23L1480.23,2492.23C1482.53,2492.23 1484.4,2494.1 1484.4,2496.4ZM1480.23,2496.4L1454.89,2496.4L1454.89,2517.3L1480.23,2517.3L1480.23,2496.4Z" style="fill:rgb(212,226,247);"/>
            </g>
            <g transform="matrix(1.12527,0,-3.46751e-33,1.24734,-647.171,-769.095)">
                <rect x="1454.89" y="2496.4" width="25.344" height="20.909" style="fill:rgb(212,226,247);"/>
                <path d="M1484.4,2496.4L1484.4,2517.3C1484.4,2519.61 1482.53,2521.47 1480.23,2521.47L1454.89,2521.47C1452.59,2521.47 1450.72,2519.61 1450.72,2517.3L1450.72,2496.4C1450.72,2494.1 1452.59,2492.23 1454.89,2492.23L1480.23,2492.23C1482.53,2492.23 1484.4,2494.1 1484.4,2496.4ZM1480.23,2496.4L1454.89,2496.4L1454.89,2517.3L1480.23,2517.3L1480.23,2496.4Z" style="fill:rgb(212,226,247);"/>
            </g>
            <g transform="matrix(4.00596,0,-1.23443e-32,1.24734,-4842.59,-28.48)">
                <rect x="1454.89" y="2496.4" width="25.344" height="20.909" style="fill:rgb(212,226,247);"/>
                <path d="M1481.4,2496.4L1481.4,2517.3C1481.4,2519.61 1480.88,2521.47 1480.23,2521.47L1454.89,2521.47C1454.24,2521.47 1453.72,2519.61 1453.72,2517.3L1453.72,2496.4C1453.72,2494.1 1454.24,2492.23 1454.89,2492.23L1480.23,2492.23C1480.88,2492.23 1481.4,2494.1 1481.4,2496.4ZM1480.23,2496.4L1454.89,2496.4L1454.89,2517.3L1480.23,2517.3L1480.23,2496.4Z" style="fill:rgb(212,226,247);"/>
            </g>
            <g transform="matrix(1.12527,0,-3.46751e-33,1.24734,-42.9266,49.8858)">
                <rect x="1454.89" y="2496.4" width="25.344" height="20.909" style="fill:rgb(198,198,201);"/>
                <path d="M1484.4,2496.4L1484.4,2517.3C1484.4,2519.61 1482.53,2521.47 1480.23,2521.47L1454.89,2521.47C1452.59,2521.47 1450.72,2519.61 1450.72,2517.3L1450.72,2496.4C1450.72,2494.1 1452.59,2492.23 1454.89,2492.23L1480.23,2492.23C1482.53,2492.23 1484.4,2494.1 1484.4,2496.4ZM1480.23,2496.4L1454.89,2496.4L1454.89,2517.3L1480.23,2517.3L1480.23,2496.4Z" style="fill:rgb(198,198,201);"/>
            </g>
            <g transform="matrix(1.12527,0,-3.46751e-33,1.24734,-580.509,-769.095)">
                <rect x="1454.89" y="2496.4" width="25.344" height="20.909" style="fill:rgb(198,198,201);"/>
                <path d="M1484.4,2496.4L1484.4,2517.3C1484.4,2519.61 1482.53,2521.47 1480.23,2521.47L1454.89,2521.47C1452.59,2521.47 1450.72,2519.61 1450.72,2517.3L1450.72,2496.4C1450.72,2494.1 1452.59,2492.23 1454.89,2492.23L1480.23,2492.23C1482.53,2492.23 1484.4,2494.1 1484.4,2496.4ZM1480.23,2496.4L1454.89,2496.4L1454.89,2517.3L1480.23,2517.3L1480.23,2496.4Z" style="fill:rgb(198,198,201);"/>
            </g>
            <g transform="matrix(0.381932,0,0,1.66872,42.33,1056.55)">
                <path d="M1608.99,559.828C1608.99,558.366 1604.32,557.179 1598.56,557.179L658.104,557.179C652.342,557.179 647.664,558.366 647.664,559.828L647.664,942.986C647.664,944.448 652.342,945.635 658.104,945.635L1598.56,945.635C1604.32,945.635 1608.99,944.448 1608.99,942.986L1608.99,559.828Z" style="fill:none;stroke:rgb(64,63,73);stroke-width:8.54px;"/>
            </g>
            <g transform="matrix(0.319269,0,0,0.306737,111.304,2085.31)">
                <path d="M1608.99,571.588C1608.99,563.635 1603.4,557.179 1596.51,557.179L660.153,557.179C653.26,557.179 647.664,563.635 647.664,571.588L647.664,931.226C647.664,939.179 653.26,945.635 660.153,945.635L1596.51,945.635C1603.4,945.635 1608.99,939.179 1608.99,931.226L1608.99,571.588Z" style="fill:white;"/>
            </g>
            <g transform="matrix(0.381932,0,0,0.364294,42.33,1783.98)">
                <rect x="647.664" y="557.179" width="961.33" height="388.456" style="fill:rgb(64,63,73);"/>
            </g>
            <g transform="matrix(1.12527,0,0,1.24734,-142.946,-741.597)">
                <path d="M686.627,2406.91L686.627,2495.34C686.627,2499.6 683.172,2503.05 678.917,2503.05L413.249,2503.05C408.994,2503.05 405.539,2499.6 405.539,2495.34L405.539,2406.91C405.539,2402.65 408.994,2399.2 413.249,2399.2L678.917,2399.2C683.172,2399.2 686.627,2402.65 686.627,2406.91ZM413.872,2457.17L413.872,2494.72L678.293,2494.72L678.293,2457.17L413.872,2457.17Z" style="fill:rgb(179,178,182);"/>
                <clipPath id="_clip2">
                    <path d="M686.627,2406.91L686.627,2495.34C686.627,2499.6 683.172,2503.05 678.917,2503.05L413.249,2503.05C408.994,2503.05 405.539,2499.6 405.539,2495.34L405.539,2406.91C405.539,2402.65 408.994,2399.2 413.249,2399.2L678.917,2399.2C683.172,2399.2 686.627,2402.65 686.627,2406.91ZM413.872,2457.17L413.872,2494.72L678.293,2494.72L678.293,2457.17L413.872,2457.17Z"/>
                </clipPath>
                <g clip-path="url(#_clip2)">
                    <g>
                        <g transform="matrix(0.707107,0.707107,-0.707107,0.707107,1731.31,392.021)">
                            <rect x="320.594" y="2142.43" width="296.282" height="308.698" style="fill:rgb(247,4,132);"/>
                        </g>
                        <g transform="matrix(0.707107,0.707107,-0.707107,0.707107,1939.29,599.998)">
                            <rect x="320.594" y="2142.43" width="296.282" height="308.698" style="fill:rgb(255,166,48);"/>
                        </g>
                    </g>
                </g>
            </g>
            <g transform="matrix(1.12527,0,0,1.24734,-988.588,374.476)">
                <text x="1171.58px" y="1445.64px" style="font-family:'Nunito-Regular', 'Nunito';font-size:33.333px;">t<tspan x="1183.44px " y="1445.64px ">y</tspan>pe</text>
                <text x="1171.58px" y="1487.31px" style="font-family:'Nunito-Regular', 'Nunito';font-size:33.333px;fill:rgb(160,159,164);">r<tspan x="1183.31px " y="1487.31px ">e</tspan>ser<tspan x="1247.74px 1264.68px " y="1487.31px 1487.31px ">ve</tspan>d</text>
                <text x="1171.58px" y="1545.64px" style="font-family:'Nunito-Regular', 'Nunito';font-size:33.333px;">pa<tspan x="1208.51px 1225.64px 1235.34px " y="1545.64px 1545.64px 1545.64px ">ylo</tspan>ad</text>
                <text x="1171.58px" y="1653.98px" style="font-family:'Nunito-Regular', 'Nunito';font-size:33.333px;">mac</text>
                <g transform="matrix(33.3333,0,0,33.3333,1265.88,1695.64)">
                </g>
                <text x="1171.58px" y="1695.64px" style="font-family:'Nunito-Regular', 'Nunito';font-size:33.333px;">c<tspan x="1186.68px " y="1695.64px ">o</tspan>okie</text>
            </g>
            <g transform="matrix(1.12527,0,0,1.24734,-1033,374.476)">
                <text x="1443.43px" y="1445.64px" style="font-family:'Nunito-Regular', 'Nunito';font-size:33.333px;">1</text>
                <text x="1443.43px" y="1487.31px" style="font-family:'Nunito-Regular', 'Nunito';font-size:33.333px;">3</text>
                <text x="1444.5px" y="1545.64px" style="font-family:'Nunito-Regular', 'Nunito';font-size:33.333px;">n</text>
                <text x="1423.43px" y="1653.98px" style="font-family:'Nunito-Regular', 'Nunito';font-size:33.333px;">16</text>
                <text x="1423.43px" y="1695.64px" style="font-family:'Nunito-Regular', 'Nunito';font-size:33.333px;">16</text>
                <g transform="matrix(33.3333,0,0,33.3333,1463.43,1766.48)">
                </g>
                <text x="1213.53px" y="1766.48px" style="font-family:'Nunito-Regular', 'Nunito';font-size:33.333px;">en<tspan x="1250.03px 1266.96px 1284.7px 1294.4px " y="1766.48px 1766.48px 1766.48px 1766.48px ">velo</tspan>pe  n + 36</text>
            </g>
            <g transform="matrix(1.12527,0,0,1.24734,-1007.2,213.348)">
                <text x="1228.7px" y="1470.55px" style="font-family:'Nunito-Medium', 'Nunito';font-weight:500;font-size:41.667px;fill:white;">En<tspan x="1276.75px 1298px 1320.25px 1332.58px " y="1470.55px 1470.55px 1470.55px 1470.55px ">velo</tspan>pe</text>
                <g transform="matrix(25,0,0,25,1459.75,1516.38)">
                </g>
                <text x="1398.3px" y="1516.38px" style="font-family:'Nunito-Regular', 'Nunito';font-size:25px;fill:white;">b<tspan x="1412.7px 1425.8px 1434.42px " y="1516.38px 1516.38px 1516.38px ">yte</tspan>s</text>
            </g>
            <g transform="matrix(0.597054,0,0,0.741612,64.9787,512.246)">
                <path d="M432.703,2196.97L345.361,2196.97L345.361,2547.98L432.703,2547.98" style="fill:none;stroke:rgb(160,159,164);stroke-width:5.18px;"/>
            </g>
            <g transform="matrix(0.63007,0,0,0.90399,-0.18931,155.509)">
                <path d="M376.162,2196.97L345.361,2196.97L345.361,2544.77L513.459,2544.77" style="fill:none;stroke:rgb(160,159,164);stroke-width:4.5px;"/>
            </g>
            <g transform="matrix(4.69386e-17,-1.24734,1.12527,9.74939e-17,-2570.28,2502.11)">
                <g transform="matrix(25,0,0,25,286.877,2518.25)">
                </g>
                <text x="82.852px" y="2518.25px" style="font-family:'Nunito-Regular', 'Nunito';font-size:25px;">M<tspan x="103.602px 120.902px 137.352px 147.927px 174.827px 180.627px 196.727px 210.927px 222.802px 240.427px 256.127px 268.652px " y="2518.25px 2518.25px 2518.25px 2518.25px 2518.25px 2518.25px 2518.25px 2518.25px 2518.25px 2518.25px 2518.25px 2518.25px ">AC_WIRE_DATA</tspan></text>
            </g>
            <g transform="matrix(4.35236e-17,-1.24734,1.12527,9.46525e-17,-2623.95,2556.2)">
                <g transform="matrix(25,0,0,25,325.196,2518.25)">
                </g>
                <text x="87.896px" y="2518.25px" style="font-family:'Nunito-Regular', 'Nunito';font-size:25px;">C<tspan x="103.571px 122.121px 140.671px 155.671px 161.471px 175.671px 186.246px 213.146px 218.946px 235.046px 249.246px 261.121px 278.746px 294.446px 306.971px " y="2518.25px 2518.25px 2518.25px 2518.25px 2518.25px 2518.25px 2518.25px 2518.25px 2518.25px 2518.25px 2518.25px 2518.25px 2518.25px 2518.25px 2518.25px ">OOKIE_WIRE_DATA</tspan></text>
            </g>
            <g transform="matrix(0.986529,0,0,1.24734,-549.408,-459.027)">
                <path d="M891.165,2388.54L1187.72,2388.54" style="fill:none;stroke:rgb(64,63,73);stroke-width:3.1px;"/>
            </g>
            <g transform="matrix(0.49129,0,0,1.66616,412.847,1057.98)">
                <path d="M1608.99,559.832C1608.99,558.368 1605.36,557.179 1600.88,557.179L655.78,557.179C651.301,557.179 647.664,558.368 647.664,559.832L647.664,942.982C647.664,944.446 651.301,945.635 655.78,945.635L1600.88,945.635C1605.36,945.635 1608.99,944.446 1608.99,942.982L1608.99,559.832Z" style="fill:none;stroke:rgb(247,4,132);stroke-width:8.39px;"/>
            </g>
            <g transform="matrix(0.49129,0,0,0.365649,411.268,1782.7)">
                <rect x="647.664" y="557.179" width="961.33" height="388.456" style="fill:rgb(247,4,132);"/>
            </g>
            <g transform="matrix(1.12527,0,0,1.24734,-537.183,212.722)">
                <text x="1254.57px" y="1470.8px" style="font-family:'Nunito-Medium', 'Nunito';font-weight:500;font-size:41.667px;">InitHell<tspan x="1393.07px " y="1470.8px ">o</tspan></text>
                <g transform="matrix(25,0,0,25,1397.15,1512.47)">
                </g>
                <text x="1273.83px" y="1512.47px" style="font-family:'Nunito-Medium', 'Nunito';font-weight:500;font-size:25px;fill:white;">t<tspan x="1282.95px " y="1512.47px ">y</tspan>pe=0x81</text>
            </g>
            <g transform="matrix(1.12527,0,0,1.24734,-550.549,409.368)">
                <text x="1171.58px" y="1445.64px" style="font-family:'Nunito-Regular', 'Nunito';font-size:33.333px;">sidi</text>
                <text x="1171.58px" y="1487.31px" style="font-family:'Nunito-Regular', 'Nunito';font-size:33.333px;">epki</text>
                <text x="1171.58px" y="1528.98px" style="font-family:'Nunito-Regular', 'Nunito';font-size:33.333px;">sctr</text>
                <text x="1171.58px" y="1570.64px" style="font-family:'Nunito-Regular', 'Nunito';font-size:33.333px;">pidiC</text>
                <text x="1171.58px" y="1612.31px" style="font-family:'Nunito-Regular', 'Nunito';font-size:33.333px;">aut<tspan x="1219.81px " y="1612.31px ">h</tspan></text>
            </g>
            <g transform="matrix(1.12527,0,0,1.24734,-506.344,409.368)">
                <text x="1463.37px" y="1445.64px" style="font-family:'Nunito-Regular', 'Nunito';font-size:33.333px;">4</text>
                <text x="1423.37px" y="1487.31px" style="font-family:'Nunito-Regular', 'Nunito';font-size:33.333px;">800</text>
                <text x="1423.37px" y="1528.98px" style="font-family:'Nunito-Regular', 'Nunito';font-size:33.333px;">188</text>
                <text x="1327.57px" y="1570.64px" style="font-family:'Nunito-Regular', 'Nunito';font-size:25px;">32 + 16 =</text>
                <text x="1443.37px" y="1570.64px" style="font-family:'Nunito-Regular', 'Nunito';font-size:33.333px;">48</text>
                <text x="1443.37px" y="1612.31px" style="font-family:'Nunito-Regular', 'Nunito';font-size:33.333px;">16</text>
                <text x="1266.77px" y="1683.14px" style="font-family:'Nunito-Regular', 'Nunito';font-size:33.333px;">pa<tspan x="1303.71px 1320.84px 1330.54px " y="1683.14px 1683.14px 1683.14px ">ylo</tspan>ad  1056</text>
                <g transform="matrix(33.3333,0,0,33.3333,1483.37,1724.81)">
                </g>
                <text x="1221.01px" y="1724.81px" style="font-family:'Nunito-Regular', 'Nunito';font-size:33.333px;fill:rgb(102,101,109);">+ en<tspan x="1286.11px 1303.04px 1320.77px 1330.47px " y="1724.81px 1724.81px 1724.81px 1724.81px ">velo</tspan>pe  1092</text>
            </g>
            <g transform="matrix(1.33216,0,0,1.24734,-419.38,-526.867)">
                <path d="M891.165,2388.54L1187.72,2388.54" style="fill:none;stroke:rgb(64,63,73);stroke-width:2.66px;"/>
            </g>
            <g transform="matrix(0.49129,0,0,1.66616,959.319,1057.98)">
                <path d="M1608.99,559.832C1608.99,558.368 1605.36,557.179 1600.88,557.179L655.78,557.179C651.301,557.179 647.664,558.368 647.664,559.832L647.664,942.982C647.664,944.446 651.301,945.635 655.78,945.635L1600.88,945.635C1605.36,945.635 1608.99,944.446 1608.99,942.982L1608.99,559.832Z" style="fill:none;stroke:rgb(255,166,48);stroke-width:8.39px;"/>
            </g>
            <g transform="matrix(0.410953,0,0,0.095385,1048.1,2311.14)">
                <path d="M1608.99,603.515C1608.99,577.941 1604.65,557.179 1599.29,557.179L657.366,557.179C652.012,557.179 647.664,577.941 647.664,603.515L647.664,899.299C647.664,924.873 652.012,945.635 657.366,945.635L1599.29,945.635C1604.65,945.635 1608.99,924.873 1608.99,899.299L1608.99,603.515Z" style="fill:rgb(255,211,152);"/>
                <path d="M1631.81,603.515L1631.81,899.299C1631.81,985.017 1617.24,1054.61 1599.29,1054.61L657.366,1054.61C639.418,1054.61 624.846,985.017 624.846,899.299L624.846,603.515C624.846,517.797 639.418,448.205 657.366,448.205L1599.29,448.205C1617.24,448.205 1631.81,517.797 1631.81,603.515ZM1608.99,603.515C1608.99,577.941 1604.65,557.179 1599.29,557.179L657.366,557.179C652.012,557.179 647.664,577.941 647.664,603.515L647.664,899.299C647.664,924.873 652.012,945.635 657.366,945.635L1599.29,945.635C1604.65,945.635 1608.99,924.873 1608.99,899.299L1608.99,603.515Z" style="fill:rgb(255,211,152);"/>
            </g>
            <g transform="matrix(0.49129,0,0,0.365649,957.741,1782.7)">
                <rect x="647.664" y="557.179" width="961.33" height="388.456" style="fill:rgb(255,166,48);"/>
            </g>
            <g transform="matrix(1.12527,0,0,1.24734,-187.957,-742.844)">
                <rect x="1454.89" y="2496.4" width="25.344" height="20.909" style="fill:rgb(212,226,247);"/>
                <path d="M1484.4,2496.4L1484.4,2517.3C1484.4,2519.61 1482.53,2521.47 1480.23,2521.47L1454.89,2521.47C1452.59,2521.47 1450.72,2519.61 1450.72,2517.3L1450.72,2496.4C1450.72,2494.1 1452.59,2492.23 1454.89,2492.23L1480.23,2492.23C1482.53,2492.23 1484.4,2494.1 1484.4,2496.4ZM1480.23,2496.4L1454.89,2496.4L1454.89,2517.3L1480.23,2517.3L1480.23,2496.4Z" style="fill:rgb(212,226,247);"/>
            </g>
            <g transform="matrix(1.12527,0,0,1.24734,254.98,158.374)">
                <rect x="1454.89" y="2496.4" width="25.344" height="20.909" style="fill:rgb(212,226,247);"/>
                <path d="M1484.4,2496.4L1484.4,2517.3C1484.4,2519.61 1482.53,2521.47 1480.23,2521.47L1454.89,2521.47C1452.59,2521.47 1450.72,2519.61 1450.72,2517.3L1450.72,2496.4C1450.72,2494.1 1452.59,2492.23 1454.89,2492.23L1480.23,2492.23C1482.53,2492.23 1484.4,2494.1 1484.4,2496.4ZM1480.23,2496.4L1454.89,2496.4L1454.89,2517.3L1480.23,2517.3L1480.23,2496.4Z" style="fill:rgb(212,226,247);"/>
            </g>
            <g transform="matrix(1.12527,0,0,1.24734,-123.162,-742.844)">
                <rect x="1454.89" y="2496.4" width="25.344" height="20.909" style="fill:rgb(253,180,218);"/>
                <path d="M1484.4,2496.4L1484.4,2517.3C1484.4,2519.61 1482.53,2521.47 1480.23,2521.47L1454.89,2521.47C1452.59,2521.47 1450.72,2519.61 1450.72,2517.3L1450.72,2496.4C1450.72,2494.1 1452.59,2492.23 1454.89,2492.23L1480.23,2492.23C1482.53,2492.23 1484.4,2494.1 1484.4,2496.4ZM1480.23,2496.4L1454.89,2496.4L1454.89,2517.3L1480.23,2517.3L1480.23,2496.4Z" style="fill:rgb(253,180,218);"/>
            </g>
            <g transform="matrix(1.12527,0,0,1.24734,349.523,159.621)">
                <rect x="1454.89" y="2496.4" width="25.344" height="20.909" style="fill:rgb(253,180,218);"/>
                <path d="M1484.4,2496.4L1484.4,2517.3C1484.4,2519.61 1482.53,2521.47 1480.23,2521.47L1454.89,2521.47C1452.59,2521.47 1450.72,2519.61 1450.72,2517.3L1450.72,2496.4C1450.72,2494.1 1452.59,2492.23 1454.89,2492.23L1480.23,2492.23C1482.53,2492.23 1484.4,2494.1 1484.4,2496.4ZM1480.23,2496.4L1454.89,2496.4L1454.89,2517.3L1480.23,2517.3L1480.23,2496.4Z" style="fill:rgb(253,180,218);"/>
            </g>
            <g transform="matrix(1.12527,0,0,1.24734,-56.9969,-742.844)">
                <rect x="1454.89" y="2496.4" width="25.344" height="20.909" style="fill:rgb(198,198,201);"/>
                <path d="M1484.4,2496.4L1484.4,2517.3C1484.4,2519.61 1482.53,2521.47 1480.23,2521.47L1454.89,2521.47C1452.59,2521.47 1450.72,2519.61 1450.72,2517.3L1450.72,2496.4C1450.72,2494.1 1452.59,2492.23 1454.89,2492.23L1480.23,2492.23C1482.53,2492.23 1484.4,2494.1 1484.4,2496.4ZM1480.23,2496.4L1454.89,2496.4L1454.89,2517.3L1480.23,2517.3L1480.23,2496.4Z" style="fill:rgb(198,198,201);"/>
            </g>
            <g transform="matrix(1.12527,0,0,1.24734,451.57,159.409)">
                <rect x="1454.89" y="2496.4" width="25.344" height="20.909" style="fill:rgb(198,198,201);"/>
                <path d="M1484.4,2496.4L1484.4,2517.3C1484.4,2519.61 1482.53,2521.47 1480.23,2521.47L1454.89,2521.47C1452.59,2521.47 1450.72,2519.61 1450.72,2517.3L1450.72,2496.4C1450.72,2494.1 1452.59,2492.23 1454.89,2492.23L1480.23,2492.23C1482.53,2492.23 1484.4,2494.1 1484.4,2496.4ZM1480.23,2496.4L1454.89,2496.4L1454.89,2517.3L1480.23,2517.3L1480.23,2496.4Z" style="fill:rgb(198,198,201);"/>
            </g>
            <g transform="matrix(1.12527,0,0,1.24734,15.2551,212.722)">
                <text x="1231.86px" y="1470.8px" style="font-family:'Nunito-Medium', 'Nunito';font-weight:500;font-size:41.667px;">R<tspan x="1259.4px " y="1470.8px ">e</tspan>spHell<tspan x="1405.19px " y="1470.8px ">o</tspan></text>
                <g transform="matrix(25,0,0,25,1391.85,1512.47)">
                </g>
                <text x="1268.53px" y="1512.47px" style="font-family:'Nunito-Medium', 'Nunito';font-weight:500;font-size:25px;fill:white;">t<tspan x="1277.65px " y="1512.47px ">y</tspan>pe=0x82</text>
            </g>
            <g transform="matrix(1.12527,0,0,1.24734,-4.07689,384.421)">
                <text x="1171.58px" y="1445.64px" style="font-family:'Nunito-Regular', 'Nunito';font-size:33.333px;">sidr</text>
                <text x="1171.58px" y="1487.31px" style="font-family:'Nunito-Regular', 'Nunito';font-size:33.333px;">sidi</text>
                <text x="1171.58px" y="1528.98px" style="font-family:'Nunito-Regular', 'Nunito';font-size:33.333px;">ect<tspan x="1216.61px " y="1528.98px ">i</tspan></text>
                <text x="1171.58px" y="1570.64px" style="font-family:'Nunito-Regular', 'Nunito';font-size:33.333px;">sct<tspan x="1214.91px " y="1570.64px ">i</tspan></text>
                <text x="1171.58px" y="1612.31px" style="font-family:'Nunito-Regular', 'Nunito';font-size:33.333px;">biscuit</text>
                <g transform="matrix(33.3333,0,0,33.3333,1238.74,1653.98)">
                </g>
                <text x="1171.58px" y="1653.98px" style="font-family:'Nunito-Regular', 'Nunito';font-size:33.333px;">aut<tspan x="1219.81px " y="1653.98px ">h</tspan></text>
            </g>
            <g transform="matrix(1.12527,0,0,1.24734,4.87963,384.421)">
                <text x="1494.7px" y="1445.64px" style="font-family:'Nunito-Regular', 'Nunito';font-size:33.333px;">4</text>
                <text x="1494.7px" y="1487.31px" style="font-family:'Nunito-Regular', 'Nunito';font-size:33.333px;">4</text>
                <text x="1454.7px" y="1528.98px" style="font-family:'Nunito-Regular', 'Nunito';font-size:33.333px;">768</text>
                <text x="1454.7px" y="1570.64px" style="font-family:'Nunito-Regular', 'Nunito';font-size:33.333px;">188</text>
                <text x="1281px" y="1612.31px" style="font-family:'Nunito-Regular', 'Nunito';font-size:25px;">76 + 24 + 16 =</text>
                <text x="1454.7px" y="1612.31px" style="font-family:'Nunito-Regular', 'Nunito';font-size:33.333px;">116</text>
                <text x="1474.7px" y="1653.98px" style="font-family:'Nunito-Regular', 'Nunito';font-size:33.333px;">16</text>
                <text x="1298.1px" y="1724.81px" style="font-family:'Nunito-Regular', 'Nunito';font-size:33.333px;">pa<tspan x="1335.03px 1352.16px 1361.86px " y="1724.81px 1724.81px 1724.81px ">ylo</tspan>ad  1096</text>
                <g transform="matrix(33.3333,0,0,33.3333,1514.7,1766.48)">
                </g>
                <text x="1252.33px" y="1766.48px" style="font-family:'Nunito-Regular', 'Nunito';font-size:33.333px;fill:rgb(102,101,109);">+ en<tspan x="1317.43px 1334.36px 1352.1px 1361.8px " y="1766.48px 1766.48px 1766.48px 1766.48px ">velo</tspan>pe  1132</text>
            </g>
            <g transform="matrix(1.12526,-0.00552033,0,1.24736,576.574,1505.7)">
                <g transform="matrix(25,0,0,25,1221.4,1439.71)">
                </g>
                <text x="1171.58px" y="1439.71px" style="font-family:'Nunito-Regular', 'Nunito';font-size:25px;">data</text>
            </g>
            <g transform="matrix(1.12527,0,0,1.24734,671.104,1499.25)">
                <g transform="matrix(25,0,0,25,1238.5,1439.71)">
                </g>
                <text x="1171.58px" y="1439.71px" style="font-family:'Nunito-Regular', 'Nunito';font-size:25px;">nonc<tspan x="1225.2px " y="1439.71px ">e</tspan></text>
            </g>
            <g transform="matrix(1.12527,0,0,1.24734,773.151,1499.25)">
                <g transform="matrix(25,0,0,25,1281.5,1439.71)">
                </g>
                <text x="1171.58px" y="1439.71px" style="font-family:'Nunito-Regular', 'Nunito';font-size:25px;">aut<tspan x="1207.75px " y="1439.71px ">h</tspan> c<tspan x="1239.73px " y="1439.71px ">o</tspan>de</text>
            </g>
            <g transform="matrix(1.33216,0,0,1.24734,127.092,-497.163)">
                <path d="M891.165,2388.54L1187.72,2388.54" style="fill:none;stroke:rgb(64,63,73);stroke-width:2.66px;"/>
            </g>
            <g transform="matrix(0.49129,0,0,1.40614,-133.626,1993.53)">
                <path d="M1608.99,560.322C1608.99,558.587 1605.36,557.179 1600.88,557.179L655.78,557.179C651.301,557.179 647.664,558.587 647.664,560.322L647.664,942.492C647.664,944.227 651.301,945.635 655.78,945.635L1600.88,945.635C1605.36,945.635 1608.99,944.227 1608.99,942.492L1608.99,560.322Z" style="fill:none;stroke:rgb(255,166,48);stroke-width:9.75px;"/>
            </g>
            <g transform="matrix(0.49129,0,0,0.368077,-135.204,2572.02)">
                <rect x="647.664" y="557.179" width="961.33" height="388.456" style="fill:rgb(255,166,48);"/>
            </g>
            <g transform="matrix(1.12527,0,0,1.24734,-1077.69,1003.39)">
                <text x="1224.31px" y="1471.18px" style="font-family:'Nunito-Medium', 'Nunito';font-weight:500;font-size:41.667px;">Emp<tspan x="1308.86px 1324.06px " y="1471.18px 1471.18px ">ty</tspan>Data</text>
                <g transform="matrix(25,0,0,25,1391.85,1512.85)">
                </g>
                <text x="1268.53px" y="1512.85px" style="font-family:'Nunito-Medium', 'Nunito';font-weight:500;font-size:25px;fill:white;">t<tspan x="1277.65px " y="1512.85px ">y</tspan>pe=0x84</text>
            </g>
            <g transform="matrix(1.12527,0,0,1.24734,-1097.02,1201.21)">
                <text x="1171.58px" y="1445.64px" style="font-family:'Nunito-Regular', 'Nunito';font-size:33.333px;">sid</text>
                <text x="1171.58px" y="1487.31px" style="font-family:'Nunito-Regular', 'Nunito';font-size:33.333px;">ctr</text>
                <g transform="matrix(33.3333,0,0,33.3333,1238.74,1528.98)">
                </g>
                <text x="1171.58px" y="1528.98px" style="font-family:'Nunito-Regular', 'Nunito';font-size:33.333px;">aut<tspan x="1219.81px " y="1528.98px ">h</tspan></text>
            </g>
            <g transform="matrix(1.12527,0,0,1.24734,-1030.06,1201.21)">
                <text x="1443.14px" y="1445.64px" style="font-family:'Nunito-Regular', 'Nunito';font-size:33.333px;">4</text>
                <text x="1443.14px" y="1487.31px" style="font-family:'Nunito-Regular', 'Nunito';font-size:33.333px;">8</text>
                <text x="1423.14px" y="1528.98px" style="font-family:'Nunito-Regular', 'Nunito';font-size:33.333px;">16</text>
                <text x="1286.55px" y="1599.81px" style="font-family:'Nunito-Regular', 'Nunito';font-size:33.333px;">pa<tspan x="1323.48px 1340.61px 1350.31px " y="1599.81px 1599.81px 1599.81px ">ylo</tspan>ad  28</text>
                <g transform="matrix(33.3333,0,0,33.3333,1463.15,1641.48)">
                </g>
                <text x="1240.78px" y="1641.48px" style="font-family:'Nunito-Regular', 'Nunito';font-size:33.333px;fill:rgb(102,101,109);">+ en<tspan x="1305.88px 1322.81px 1340.55px 1350.25px " y="1641.48px 1641.48px 1641.48px 1641.48px ">velo</tspan>pe  64</text>
            </g>
            <g transform="matrix(1.33216,0,0,1.24734,-965.853,161.991)">
                <path d="M891.165,2388.54L1187.72,2388.54" style="fill:none;stroke:rgb(64,63,73);stroke-width:2.66px;"/>
            </g>
            <g transform="matrix(0.49129,0,0,1.40614,959.319,1993.53)">
                <path d="M1608.99,560.322C1608.99,558.587 1605.36,557.179 1600.88,557.179L655.78,557.179C651.301,557.179 647.664,558.587 647.664,560.322L647.664,942.492C647.664,944.227 651.301,945.635 655.78,945.635L1600.88,945.635C1605.36,945.635 1608.99,944.227 1608.99,942.492L1608.99,560.322Z" style="fill:none;stroke:rgb(160,159,164);stroke-width:9.75px;"/>
            </g>
            <g transform="matrix(0.49129,0,0,0.334613,957.741,2590.66)">
                <rect x="647.664" y="557.179" width="961.33" height="388.456" style="fill:rgb(160,159,164);"/>
            </g>
            <g transform="matrix(1.12527,0,0,1.24734,15.2551,1003.39)">
                <text x="1211.79px" y="1466.12px" style="font-family:'Nunito-Medium', 'Nunito';font-weight:500;font-size:42.083px;">C<tspan x="1238.72px " y="1466.12px ">o</tspan>okieR<tspan x="1367.5px " y="1466.12px ">e</tspan>pl<tspan x="1426.83px " y="1466.12px ">y</tspan></text>
                <g transform="matrix(25,0,0,25,1391.85,1507.78)">
                </g>
                <text x="1268.53px" y="1507.78px" style="font-family:'Nunito-Medium', 'Nunito';font-weight:500;font-size:25px;fill:white;">t<tspan x="1277.65px " y="1507.78px ">y</tspan>pe=0x86</text>
            </g>
            <g transform="matrix(1.12527,0,0,1.24734,-1.83585,1177.68)">
                <text x="1171.58px" y="1445.94px" style="font-family:'Nunito-Regular', 'Nunito';font-size:33.75px;">t<tspan x="1183.59px " y="1445.94px ">y</tspan>pe(0x86)</text>
                <text x="1171.58px" y="1487.61px" style="font-family:'Nunito-Regular', 'Nunito';font-size:33.75px;">r<tspan x="1183.46px " y="1487.61px ">e</tspan>ser<tspan x="1248.69px 1265.84px " y="1487.61px 1487.61px ">ve</tspan>d</text>
                <text x="1171.58px" y="1529.27px" style="font-family:'Nunito-Regular', 'Nunito';font-size:33.75px;">sid</text>
                <text x="1171.58px" y="1570.94px" style="font-family:'Nunito-Regular', 'Nunito';font-size:33.75px;">nonc<tspan x="1243.97px " y="1570.94px ">e</tspan></text>
                <g transform="matrix(33.75,0,0,33.75,1267.05,1612.61)">
                </g>
                <text x="1171.58px" y="1612.61px" style="font-family:'Nunito-Regular', 'Nunito';font-size:33.75px;">c<tspan x="1186.87px " y="1612.61px ">o</tspan>okie</text>
            </g>
            <g transform="matrix(1.12527,0,0,1.24734,65.1309,1177.68)">
                <text x="1442.89px" y="1445.94px" style="font-family:'Nunito-Regular', 'Nunito';font-size:33.75px;">1</text>
                <text x="1442.89px" y="1487.61px" style="font-family:'Nunito-Regular', 'Nunito';font-size:33.75px;">3</text>
                <text x="1442.89px" y="1529.27px" style="font-family:'Nunito-Regular', 'Nunito';font-size:33.75px;">4</text>
                <text x="1422.64px" y="1570.94px" style="font-family:'Nunito-Regular', 'Nunito';font-size:33.75px;">24</text>
                <text x="1296.21px" y="1612.61px" style="font-family:'Nunito-Regular', 'Nunito';font-size:25.417px;">16 + 16 =</text>
                <text x="1422.64px" y="1612.61px" style="font-family:'Nunito-Regular', 'Nunito';font-size:33.75px;">32</text>
                <g transform="matrix(33.75,0,0,33.75,1463.15,1683.44)">
                </g>
                <text x="1284.34px" y="1683.44px" style="font-family:'Nunito-Regular', 'Nunito';font-size:33.75px;">pa<tspan x="1321.73px 1339.08px 1348.9px " y="1683.44px 1683.44px 1683.44px ">ylo</tspan>ad  64</text>
            </g>
            <g transform="matrix(1.33216,0,0,1.24734,129.333,240.128)">
                <path d="M891.165,2388.54L1187.72,2388.54" style="fill:none;stroke:rgb(64,63,73);stroke-width:2.66px;"/>
            </g>
            <g transform="matrix(0.49129,0,0,1.66616,1505.79,1057.98)">
                <path d="M1608.99,559.832C1608.99,558.368 1605.36,557.179 1600.88,557.179L655.78,557.179C651.301,557.179 647.664,558.368 647.664,559.832L647.664,942.982C647.664,944.446 651.301,945.635 655.78,945.635L1600.88,945.635C1605.36,945.635 1608.99,944.446 1608.99,942.982L1608.99,559.832Z" style="fill:none;stroke:rgb(247,4,132);stroke-width:8.39px;"/>
            </g>
            <g transform="matrix(0.410953,0,0,0.095385,1594.58,2286.53)">
                <path d="M1608.99,603.515C1608.99,577.941 1604.65,557.179 1599.29,557.179L657.366,557.179C652.012,557.179 647.664,577.941 647.664,603.515L647.664,899.299C647.664,924.873 652.012,945.635 657.366,945.635L1599.29,945.635C1604.65,945.635 1608.99,924.873 1608.99,899.299L1608.99,603.515Z" style="fill:rgb(255,211,152);"/>
                <path d="M1631.81,603.515L1631.81,899.299C1631.81,985.017 1617.24,1054.61 1599.29,1054.61L657.366,1054.61C639.418,1054.61 624.846,985.017 624.846,899.299L624.846,603.515C624.846,517.797 639.418,448.205 657.366,448.205L1599.29,448.205C1617.24,448.205 1631.81,517.797 1631.81,603.515ZM1608.99,603.515C1608.99,577.941 1604.65,557.179 1599.29,557.179L657.366,557.179C652.012,557.179 647.664,577.941 647.664,603.515L647.664,899.299C647.664,924.873 652.012,945.635 657.366,945.635L1599.29,945.635C1604.65,945.635 1608.99,924.873 1608.99,899.299L1608.99,603.515Z" style="fill:rgb(255,211,152);"/>
            </g>
            <g transform="matrix(1.12527,0,0,1.24734,358.999,-768.503)">
                <rect x="1454.89" y="2496.4" width="25.344" height="20.909" style="fill:rgb(212,226,247);"/>
                <path d="M1484.4,2496.4L1484.4,2517.3C1484.4,2519.61 1482.53,2521.47 1480.23,2521.47L1454.89,2521.47C1452.59,2521.47 1450.72,2519.61 1450.72,2517.3L1450.72,2496.4C1450.72,2494.1 1452.59,2492.23 1454.89,2492.23L1480.23,2492.23C1482.53,2492.23 1484.4,2494.1 1484.4,2496.4ZM1480.23,2496.4L1454.89,2496.4L1454.89,2517.3L1480.23,2517.3L1480.23,2496.4Z" style="fill:rgb(212,226,247);"/>
            </g>
            <g transform="matrix(1.12527,0,0,1.24734,423.794,-768.503)">
                <rect x="1454.89" y="2496.4" width="25.344" height="20.909" style="fill:rgb(253,180,218);"/>
                <path d="M1484.4,2496.4L1484.4,2517.3C1484.4,2519.61 1482.53,2521.47 1480.23,2521.47L1454.89,2521.47C1452.59,2521.47 1450.72,2519.61 1450.72,2517.3L1450.72,2496.4C1450.72,2494.1 1452.59,2492.23 1454.89,2492.23L1480.23,2492.23C1482.53,2492.23 1484.4,2494.1 1484.4,2496.4ZM1480.23,2496.4L1454.89,2496.4L1454.89,2517.3L1480.23,2517.3L1480.23,2496.4Z" style="fill:rgb(253,180,218);"/>
            </g>
            <g transform="matrix(1.12527,0,0,1.24734,489.959,-768.503)">
                <rect x="1454.89" y="2496.4" width="25.344" height="20.909" style="fill:rgb(198,198,201);"/>
                <path d="M1484.4,2496.4L1484.4,2517.3C1484.4,2519.61 1482.53,2521.47 1480.23,2521.47L1454.89,2521.47C1452.59,2521.47 1450.72,2519.61 1450.72,2517.3L1450.72,2496.4C1450.72,2494.1 1452.59,2492.23 1454.89,2492.23L1480.23,2492.23C1482.53,2492.23 1484.4,2494.1 1484.4,2496.4ZM1480.23,2496.4L1454.89,2496.4L1454.89,2517.3L1480.23,2517.3L1480.23,2496.4Z" style="fill:rgb(198,198,201);"/>
            </g>
            <g transform="matrix(0.49129,0,0,0.365649,1504.21,1782.7)">
                <rect x="647.664" y="557.179" width="961.33" height="388.456" style="fill:rgb(247,4,132);"/>
            </g>
            <g transform="matrix(1.12527,0,0,1.24734,567.693,212.722)">
                <text x="1251.12px" y="1470.8px" style="font-family:'Nunito-Medium', 'Nunito';font-weight:500;font-size:41.667px;">InitC<tspan x="1337.33px " y="1470.8px ">o</tspan>nf</text>
                <g transform="matrix(25,0,0,25,1386.55,1512.47)">
                </g>
                <text x="1263.23px" y="1512.47px" style="font-family:'Nunito-Medium', 'Nunito';font-weight:500;font-size:25px;fill:white;">t<tspan x="1272.35px " y="1512.47px ">y</tspan>pe=0x83</text>
            </g>
            <g transform="matrix(1.12527,0,0,1.24734,542.396,463.835)">
                <text x="1171.58px" y="1445.64px" style="font-family:'Nunito-Regular', 'Nunito';font-size:33.333px;">sidi</text>
                <text x="1171.58px" y="1487.31px" style="font-family:'Nunito-Regular', 'Nunito';font-size:33.333px;">sidr</text>
                <text x="1171.58px" y="1528.98px" style="font-family:'Nunito-Regular', 'Nunito';font-size:33.333px;">biscuit</text>
                <g transform="matrix(33.3333,0,0,33.3333,1238.74,1570.64)">
                </g>
                <text x="1171.58px" y="1570.64px" style="font-family:'Nunito-Regular', 'Nunito';font-size:33.333px;">aut<tspan x="1219.81px " y="1570.64px ">h</tspan></text>
            </g>
            <g transform="matrix(1.12527,0,0,1.24734,586.601,463.835)">
                <text x="1463.37px" y="1445.64px" style="font-family:'Nunito-Regular', 'Nunito';font-size:33.333px;">4</text>
                <text x="1463.37px" y="1487.31px" style="font-family:'Nunito-Regular', 'Nunito';font-size:33.333px;">4</text>
                <text x="1249.67px" y="1528.98px" style="font-family:'Nunito-Regular', 'Nunito';font-size:25px;">76 + 24 + 16 =</text>
                <text x="1423.37px" y="1528.98px" style="font-family:'Nunito-Regular', 'Nunito';font-size:33.333px;">116</text>
                <text x="1443.37px" y="1570.64px" style="font-family:'Nunito-Regular', 'Nunito';font-size:33.333px;">16</text>
                <text x="1286.77px" y="1641.48px" style="font-family:'Nunito-Regular', 'Nunito';font-size:33.333px;">pa<tspan x="1323.71px 1340.84px 1350.54px " y="1641.48px 1641.48px 1641.48px ">ylo</tspan>ad  140</text>
                <g transform="matrix(33.3333,0,0,33.3333,1483.37,1683.14)">
                </g>
                <text x="1241.01px" y="1683.14px" style="font-family:'Nunito-Regular', 'Nunito';font-size:33.333px;fill:rgb(102,101,109);">+ en<tspan x="1306.11px 1323.04px 1340.77px 1350.47px " y="1683.14px 1683.14px 1683.14px 1683.14px ">velo</tspan>pe  176</text>
            </g>
            <g transform="matrix(1.33216,0,0,1.24734,673.565,-524.373)">
                <path d="M891.165,2388.54L1187.72,2388.54" style="fill:none;stroke:rgb(64,63,73);stroke-width:2.66px;"/>
            </g>
            <g transform="matrix(0.49129,0,0,1.40614,412.847,1993.53)">
                <path d="M1608.99,560.322C1608.99,558.587 1605.36,557.179 1600.88,557.179L655.78,557.179C651.301,557.179 647.664,558.587 647.664,560.322L647.664,942.492C647.664,944.227 651.301,945.635 655.78,945.635L1600.88,945.635C1605.36,945.635 1608.99,944.227 1608.99,942.492L1608.99,560.322Z" style="fill:none;stroke:rgb(247,4,132);stroke-width:9.75px;"/>
            </g>
            <g transform="matrix(0.49129,0,0,0.368077,411.268,2572.02)">
                <rect x="647.664" y="557.179" width="961.33" height="388.456" style="fill:rgb(247,4,132);"/>
            </g>
            <g transform="matrix(1.12527,0,0,1.24734,-525.252,1003.39)">
                <text x="1279.66px" y="1471.18px" style="font-family:'Nunito-Medium', 'Nunito';font-weight:500;font-size:41.667px;">Data</text>
                <g transform="matrix(25,0,0,25,1386.55,1512.85)">
                </g>
                <text x="1263.23px" y="1512.85px" style="font-family:'Nunito-Medium', 'Nunito';font-weight:500;font-size:25px;fill:white;">t<tspan x="1272.35px " y="1512.85px ">y</tspan>pe=0x85</text>
            </g>
            <g transform="matrix(1.12527,0,0,1.24734,-550.549,1201.35)">
                <text x="1171.58px" y="1445.64px" style="font-family:'Nunito-Regular', 'Nunito';font-size:33.333px;">sid</text>
                <text x="1171.58px" y="1487.31px" style="font-family:'Nunito-Regular', 'Nunito';font-size:33.333px;">ctr</text>
                <g transform="matrix(33.3333,0,0,33.3333,1290.6,1528.98)">
                </g>
                <text x="1171.58px" y="1528.98px" style="font-family:'Nunito-Regular', 'Nunito';font-size:33.333px;">data</text>
            </g>
            <g transform="matrix(1.12527,0,0,1.24734,-531.524,1201.35)">
                <text x="1485.75px" y="1445.64px" style="font-family:'Nunito-Regular', 'Nunito';font-size:33.333px;">4</text>
                <text x="1485.75px" y="1487.31px" style="font-family:'Nunito-Regular', 'Nunito';font-size:33.333px;">8</text>
                <text x="1348.83px" y="1528.98px" style="font-family:'Nunito-Regular', 'Nunito';font-size:25px;">v<tspan x="1361.45px " y="1528.98px ">a</tspan>riabl<tspan x="1424.55px " y="1528.98px ">e</tspan> +</text>
                <text x="1465.75px" y="1528.98px" style="font-family:'Nunito-Regular', 'Nunito';font-size:33.333px;">16</text>
                <text x="1218.67px" y="1599.81px" style="font-family:'Nunito-Regular', 'Nunito';font-size:33.333px;">pa<tspan x="1255.61px 1272.74px 1282.44px " y="1599.81px 1599.81px 1599.81px ">ylo</tspan>ad</text>
                <text x="1346.67px" y="1599.81px" style="font-family:'Nunito-Regular', 'Nunito';font-size:25px;">v<tspan x="1359.3px " y="1599.81px ">a</tspan>riabl<tspan x="1422.4px " y="1599.81px ">e</tspan> +</text>
                <text x="1465.75px" y="1599.81px" style="font-family:'Nunito-Regular', 'Nunito';font-size:33.333px;">28</text>
                <text x="1172.91px" y="1641.48px" style="font-family:'Nunito-Regular', 'Nunito';font-size:33.333px;fill:rgb(102,101,109);">+ en<tspan x="1238.01px 1254.94px 1272.67px 1282.38px " y="1641.48px 1641.48px 1641.48px 1641.48px ">velo</tspan>pe</text>
                <text x="1346.67px" y="1641.48px" style="font-family:'Nunito-Regular', 'Nunito';font-size:25px;">v<tspan x="1359.3px " y="1641.48px ">a</tspan>riabl<tspan x="1422.4px " y="1641.48px ">e</tspan> +</text>
                <g transform="matrix(33.3333,0,0,33.3333,1505.75,1641.48)">
                </g>
                <text x="1465.75px" y="1641.48px" style="font-family:'Nunito-Regular', 'Nunito';font-size:33.333px;fill:rgb(102,101,109);">64</text>
            </g>
            <g transform="matrix(1.33216,0,0,1.24734,-416.65,163)">
                <path d="M891.165,2388.54L1187.72,2388.54" style="fill:none;stroke:rgb(64,63,73);stroke-width:2.66px;"/>
            </g>
            <g transform="matrix(0.400209,0,0,1.19089,1603.45,2116.08)">
                <path d="M1608.99,560.89C1608.99,558.842 1604.53,557.179 1599.03,557.179L657.627,557.179C652.128,557.179 647.664,558.842 647.664,560.89L647.664,941.924C647.664,943.972 652.128,945.635 657.627,945.635L1599.03,945.635C1604.53,945.635 1608.99,943.972 1608.99,941.924L1608.99,560.89Z" style="fill:white;stroke:rgb(255,211,152);stroke-width:11.57px;"/>
            </g>
            <g transform="matrix(0.400209,0,0,0.196676,1603.45,2670.03)">
                <rect x="647.664" y="557.179" width="961.33" height="388.456" style="fill:rgb(255,211,152);"/>
            </g>
            <g transform="matrix(1.12527,0,0,1.24734,549.555,1015.54)">
                <g transform="matrix(41.6667,0,0,41.6667,1401.28,1457.77)">
                </g>
                <text x="1279.11px" y="1457.77px" style="font-family:'Nunito-Medium', 'Nunito';font-weight:500;font-size:41.667px;">biscuit</text>
            </g>
            <g transform="matrix(1.12527,0,0,1.24734,588.073,1106.8)">
                <text x="1398.83px" y="1445.94px" style="font-family:'Nunito-Regular', 'Nunito';font-size:33.75px;">32</text>
                <text x="1398.83px" y="1487.61px" style="font-family:'Nunito-Regular', 'Nunito';font-size:33.75px;">12</text>
                <text x="1398.83px" y="1529.27px" style="font-family:'Nunito-Regular', 'Nunito';font-size:33.75px;">32</text>
                <text x="1283.47px" y="1600.11px" style="font-family:'Nunito-Regular', 'Nunito';font-size:33.75px;">biscuit  76</text>
                <text x="1241.85px" y="1641.77px" style="font-family:'Nunito-Regular', 'Nunito';font-size:33.75px;fill:rgb(102,101,109);">+ nonc<tspan x="1343.21px " y="1641.77px ">e</tspan>  100</text>
                <g transform="matrix(33.75,0,0,33.75,1450.58,1683.44)">
                </g>
                <text x="1183.8px" y="1683.44px" style="font-family:'Nunito-Regular', 'Nunito';font-size:33.75px;fill:rgb(102,101,109);">+ aut<tspan x="1261.6px " y="1683.44px ">h</tspan> c<tspan x="1304.76px " y="1683.44px ">o</tspan>de  116</text>
            </g>
            <g transform="matrix(1.05033,0,0,1.24734,960.205,67.5815)">
                <path d="M891.165,2388.54L1187.72,2388.54" style="fill:none;stroke:rgb(64,63,73);stroke-width:3.02px;"/>
            </g>
            <g transform="matrix(1.12527,0,0,1.24734,577.881,1106.8)">
                <text x="1171.58px" y="1445.94px" style="font-family:'Nunito-Regular', 'Nunito';font-size:33.75px;">pidi</text>
                <text x="1171.58px" y="1487.61px" style="font-family:'Nunito-Regular', 'Nunito';font-size:33.75px;">biscuit<tspan x="1269.99px " y="1487.61px ">_</tspan>no</text>
                <g transform="matrix(33.75,0,0,33.75,1204.08,1529.27)">
                </g>
                <text x="1171.58px" y="1529.27px" style="font-family:'Nunito-Regular', 'Nunito';font-size:33.75px;">ck</text>
            </g>
        </g>
    </g>
</svg>
