<?xml version="1.0" encoding="UTF-8" standalone="no"?>
<!DOCTYPE svg PUBLIC "-//W3C//DTD SVG 1.1//EN" "http://www.w3.org/Graphics/SVG/1.1/DTD/svg11.dtd">
<svg width="100%" height="100%" viewBox="0 0 2037 1491" version="1.1" xmlns="http://www.w3.org/2000/svg" xmlns:xlink="http://www.w3.org/1999/xlink" xml:space="preserve" xmlns:serif="http://www.serif.com/" style="fill-rule:evenodd;clip-rule:evenodd;stroke-linejoin:round;stroke-miterlimit:1.5;">
    <g transform="matrix(0.958104,0,0,0.883458,-169.743,-156.518)">
        <rect id="ArtBoard1" x="177.165" y="177.165" width="2125.98" height="1687.51" style="fill:none;"/>
        <clipPath id="_clip1">
            <rect id="ArtBoard11" serif:id="ArtBoard1" x="177.165" y="177.165" width="2125.98" height="1687.51"/>
        </clipPath>
        <g clip-path="url(#_clip1)">
            <g transform="matrix(0.377816,0,0,0.318513,-62.5845,3.62207)">
                <path d="M1608.99,599.153C1608.99,575.987 1594.37,557.179 1576.37,557.179L680.292,557.179C662.284,557.179 647.664,575.987 647.664,599.153L647.664,903.661C647.664,926.827 662.284,945.635 680.292,945.635L1576.37,945.635C1594.37,945.635 1608.99,926.827 1608.99,903.661L1608.99,599.153Z" style="fill:rgb(247,4,132);"/>
            </g>
            <g transform="matrix(1.11885,0,0,0.472336,1334.4,22.5297)">
                <path d="M497.076,394.18L497.076,1793.56C497.076,1793.56 -810.094,1791.78 -810.094,1793.56L-810.094,2231.73L497.076,2231.73L497.076,3888.59" style="fill:none;stroke:rgb(255,166,48);stroke-width:15.37px;"/>
            </g>
            <g transform="matrix(1.10326,0,0,0.239529,-152.083,336.057)">
                <g transform="matrix(0.946041,-0,-0,4.72559,298.433,-663.352)">
                    <path d="M1597.09,252.781L1609.59,265.281L1597.09,277.781" style="fill:none;stroke:rgb(247,4,132);stroke-width:8.33px;stroke-linecap:round;stroke-linejoin:miter;stroke-miterlimit:10;"/>
                    <path d="M209.973,265.281L1609.59,265.281" style="fill:none;stroke:rgb(247,4,132);stroke-width:8.33px;stroke-linecap:round;stroke-dasharray:8.33,16.67,0,0;"/>
                </g>
            </g>
            <g transform="matrix(0.54423,0,0,0.514519,523.603,90.8277)">
                <path d="M1608.99,583.163C1608.99,568.822 1598.85,557.179 1586.34,557.179L670.315,557.179C657.814,557.179 647.664,568.822 647.664,583.163L647.664,919.651C647.664,933.992 657.814,945.635 670.315,945.635L1586.34,945.635C1598.85,945.635 1608.99,933.992 1608.99,919.651L1608.99,583.163Z" style="fill:rgb(247,4,132);"/>
                <path d="M1624.98,583.163L1624.98,919.651C1624.98,944.11 1607.66,963.968 1586.34,963.968L670.315,963.968C648.993,963.968 631.682,944.11 631.682,919.651L631.682,583.163C631.682,558.704 648.993,538.846 670.315,538.846L1586.34,538.846C1607.66,538.846 1624.98,558.704 1624.98,583.163ZM1608.99,583.163C1608.99,568.822 1598.85,557.179 1586.34,557.179L670.315,557.179C657.814,557.179 647.664,568.822 647.664,583.163L647.664,919.651C647.664,933.992 657.814,945.635 670.315,945.635L1586.34,945.635C1598.85,945.635 1608.99,933.992 1608.99,919.651L1608.99,583.163Z" style="fill:white;"/>
            </g>
            <g transform="matrix(1.04373,0,0,1.13192,-323.596,-1172.27)">
                <g transform="matrix(50,0,0,50,1497.15,1475.25)">
                </g>
                <text x="1302.95px" y="1475.25px" style="font-family:'Nunito-Medium', 'Nunito';font-weight:500;font-size:50px;">InitHell<tspan x="1469.15px " y="1475.25px ">o</tspan></text>
            </g>
            <g transform="matrix(1.10157,0,0,0.239529,-151.245,1006.25)">
                <g transform="matrix(0.947489,-0,-0,4.72559,298.129,-3461.31)">
                    <path d="M1597.09,844.867L1609.59,857.367L1597.09,869.867" style="fill:none;stroke:rgb(247,4,132);stroke-width:8.33px;stroke-linecap:round;stroke-linejoin:miter;stroke-miterlimit:10;"/>
                    <path d="M209.973,857.367L1609.59,857.367" style="fill:none;stroke:rgb(247,4,132);stroke-width:8.33px;stroke-linecap:round;stroke-dasharray:8.33,16.67,0,0;"/>
                </g>
            </g>
            <g transform="matrix(0.54423,0,0,0.514519,523.603,752.344)">
                <path d="M1608.99,583.163C1608.99,568.822 1598.85,557.179 1586.34,557.179L670.315,557.179C657.814,557.179 647.664,568.822 647.664,583.163L647.664,919.651C647.664,933.992 657.814,945.635 670.315,945.635L1586.34,945.635C1598.85,945.635 1608.99,933.992 1608.99,919.651L1608.99,583.163Z" style="fill:rgb(247,4,132);"/>
                <path d="M1624.98,583.163L1624.98,919.651C1624.98,944.11 1607.66,963.968 1586.34,963.968L670.315,963.968C648.993,963.968 631.682,944.11 631.682,919.651L631.682,583.163C631.682,558.704 648.993,538.846 670.315,538.846L1586.34,538.846C1607.66,538.846 1624.98,558.704 1624.98,583.163ZM1608.99,583.163C1608.99,568.822 1598.85,557.179 1586.34,557.179L670.315,557.179C657.814,557.179 647.664,568.822 647.664,583.163L647.664,919.651C647.664,933.992 657.814,945.635 670.315,945.635L1586.34,945.635C1598.85,945.635 1608.99,933.992 1608.99,919.651L1608.99,583.163Z" style="fill:white;"/>
            </g>
            <g transform="matrix(0.19416,0,0,0.275328,1052.99,940.806)">
                <path d="M1608.99,571.746C1608.99,563.706 1600.46,557.179 1589.95,557.179L666.712,557.179C656.199,557.179 647.664,563.706 647.664,571.746L647.664,931.068C647.664,939.108 656.199,945.635 666.712,945.635L1589.95,945.635C1600.46,945.635 1608.99,939.108 1608.99,931.068L1608.99,571.746Z" style="fill:rgb(255,211,152);stroke:white;stroke-width:19.24px;stroke-linecap:round;"/>
            </g>
            <g transform="matrix(1.04373,0,0,1.13192,-345.04,-502.074)">
                <g transform="matrix(50,0,0,50,1404.28,1475.25)">
                </g>
                <text x="1227.23px" y="1475.25px" style="font-family:'Nunito-Medium', 'Nunito';font-weight:500;font-size:50px;">InitC<tspan x="1330.68px " y="1475.25px ">o</tspan>nf</text>
            </g>
            <g transform="matrix(1.04373,0,0,1.13192,-34.3588,-501.229)">
                <g transform="matrix(41.6667,0,0,41.6667,1315.29,1464.53)">
                </g>
                <text x="1188.09px" y="1464.53px" style="font-family:'Nunito-SemiBold', 'Nunito';font-weight:600;font-size:41.667px;">Biscuit</text>
            </g>
            <g transform="matrix(8.61155e-18,1.13192,-0.0754413,3.71795e-17,1069.8,-342.031)">
                <path d="M497.076,394.18L497.076,1793.56" style="fill:none;stroke:rgb(247,4,132);stroke-width:17.63px;"/>
            </g>
            <g transform="matrix(8.61155e-18,1.13192,-0.0754413,3.71795e-17,1069.8,-288.169)">
                <path d="M497.076,394.18L497.076,1793.56" style="fill:none;stroke:rgb(255,166,48);stroke-width:17.63px;"/>
            </g>
            <g transform="matrix(1.10808,0,0,1.04133,-187.35,-115.819)">
                <path d="M497.076,394.18L497.076,1896.68" style="fill:none;stroke:rgb(247,4,132);stroke-width:12.58px;"/>
            </g>
            <g transform="matrix(-1.09658,0,0,0.321304,2399.88,618.547)">
                <g transform="matrix(-0.9518,0,0,3.52288,2026.95,-1373.72)">
                    <path d="M220.225,569.992L207.725,557.492L220.225,544.992" style="fill:none;stroke:rgb(255,166,48);stroke-width:8.33px;stroke-linecap:round;stroke-linejoin:miter;stroke-miterlimit:10;"/>
                    <path d="M1607.34,557.492L207.725,557.492" style="fill:none;stroke:rgb(255,166,48);stroke-width:8.33px;stroke-linecap:round;stroke-dasharray:8.33,16.67,0,0;"/>
                </g>
            </g>
            <g transform="matrix(0.54423,0,0,0.514519,523.603,421.586)">
                <path d="M1608.99,583.163C1608.99,568.822 1598.85,557.179 1586.34,557.179L670.315,557.179C657.814,557.179 647.664,568.822 647.664,583.163L647.664,919.651C647.664,933.992 657.814,945.635 670.315,945.635L1586.34,945.635C1598.85,945.635 1608.99,933.992 1608.99,919.651L1608.99,583.163Z" style="fill:rgb(255,166,48);"/>
                <path d="M1624.98,583.163L1624.98,919.651C1624.98,944.11 1607.66,963.968 1586.34,963.968L670.315,963.968C648.993,963.968 631.682,944.11 631.682,919.651L631.682,583.163C631.682,558.704 648.993,538.846 670.315,538.846L1586.34,538.846C1607.66,538.846 1624.98,558.704 1624.98,583.163ZM1608.99,583.163C1608.99,568.822 1598.85,557.179 1586.34,557.179L670.315,557.179C657.814,557.179 647.664,568.822 647.664,583.163L647.664,919.651C647.664,933.992 657.814,945.635 670.315,945.635L1586.34,945.635C1598.85,945.635 1608.99,933.992 1608.99,919.651L1608.99,583.163Z" style="fill:white;"/>
            </g>
            <g transform="matrix(0.19416,0,0,0.275328,1052.99,601.372)">
                <path d="M1608.99,571.746C1608.99,563.706 1600.46,557.179 1589.95,557.179L666.712,557.179C656.199,557.179 647.664,563.706 647.664,571.746L647.664,931.068C647.664,939.108 656.199,945.635 666.712,945.635L1589.95,945.635C1600.46,945.635 1608.99,939.108 1608.99,931.068L1608.99,571.746Z" style="fill:rgb(255,211,152);stroke:white;stroke-width:19.24px;stroke-linecap:round;"/>
            </g>
            <g transform="matrix(1.04373,0,0,1.13192,-345.04,-841.508)">
                <g transform="matrix(50,0,0,50,1433.76,1475.25)">
                </g>
                <text x="1197.76px" y="1475.25px" style="font-family:'Nunito-Medium', 'Nunito';font-weight:500;font-size:50px;">R<tspan x="1230.81px " y="1475.25px ">e</tspan>spHell<tspan x="1405.76px " y="1475.25px ">o</tspan></text>
            </g>
            <g transform="matrix(1.04373,0,0,1.13192,-34.3588,-841.794)">
                <g transform="matrix(41.6667,0,0,41.6667,1315.29,1464.53)">
                </g>
                <text x="1188.09px" y="1464.53px" style="font-family:'Nunito-SemiBold', 'Nunito';font-weight:600;font-size:41.667px;">Biscuit</text>
            </g>
            <g transform="matrix(-1.10076,0,0,0.321304,2401.96,1404.06)">
                <g transform="matrix(-0.94819,0,0,3.52288,2021.14,-3818.47)">
                    <path d="M220.225,1263.96L207.725,1251.46L220.225,1238.96" style="fill:none;stroke:rgb(255,166,48);stroke-width:8.33px;stroke-linecap:round;stroke-linejoin:miter;stroke-miterlimit:10;"/>
                    <path d="M1607.34,1251.46L207.725,1251.46" style="fill:none;stroke:rgb(255,166,48);stroke-width:8.33px;stroke-linecap:round;stroke-dasharray:8.33,16.67,0,0;"/>
                </g>
            </g>
            <g transform="matrix(0.54423,0,0,0.514519,523.603,1207.09)">
                <path d="M1608.99,583.163C1608.99,568.822 1598.85,557.179 1586.34,557.179L670.315,557.179C657.814,557.179 647.664,568.822 647.664,583.163L647.664,919.651C647.664,933.992 657.814,945.635 670.315,945.635L1586.34,945.635C1598.85,945.635 1608.99,933.992 1608.99,919.651L1608.99,583.163Z" style="fill:rgb(255,166,48);"/>
                <path d="M1624.98,583.163L1624.98,919.651C1624.98,944.11 1607.66,963.968 1586.34,963.968L670.315,963.968C648.993,963.968 631.682,944.11 631.682,919.651L631.682,583.163C631.682,558.704 648.993,538.846 670.315,538.846L1586.34,538.846C1607.66,538.846 1624.98,558.704 1624.98,583.163ZM1608.99,583.163C1608.99,568.822 1598.85,557.179 1586.34,557.179L670.315,557.179C657.814,557.179 647.664,568.822 647.664,583.163L647.664,919.651C647.664,933.992 657.814,945.635 670.315,945.635L1586.34,945.635C1598.85,945.635 1608.99,933.992 1608.99,919.651L1608.99,583.163Z" style="fill:white;"/>
            </g>
            <g transform="matrix(1.04373,0,0,1.13192,-323.596,-115.707)">
                <g transform="matrix(50,0,0,50,1528.5,1528)">
                </g>
                <text x="1274.4px" y="1528px" style="font-family:'Nunito-Medium', 'Nunito';font-weight:500;font-size:50px;">Emp<tspan x="1375.85px 1394.1px " y="1528px 1528px ">ty</tspan>Data</text>
            </g>
            <g transform="matrix(1.16933e-17,1.13192,-0.102439,3.71795e-17,1384.12,272.481)">
                <path d="M497.076,394.18L497.076,1793.56" style="fill:none;stroke:rgb(255,166,48);stroke-width:17.59px;stroke-linecap:round;"/>
            </g>
            <g transform="matrix(1.16933e-17,1.13192,-0.102439,3.71795e-17,1384.12,612.276)">
                <path d="M497.076,394.18L497.076,1793.56" style="fill:none;stroke:rgb(255,166,48);stroke-width:17.59px;stroke-linecap:round;"/>
            </g>
            <g transform="matrix(0.377816,0,0,0.318513,1464.43,3.62207)">
                <path d="M1608.99,599.153C1608.99,575.987 1594.37,557.179 1576.37,557.179L680.292,557.179C662.284,557.179 647.664,575.987 647.664,599.153L647.664,903.661C647.664,926.827 662.284,945.635 680.292,945.635L1576.37,945.635C1594.37,945.635 1608.99,926.827 1608.99,903.661L1608.99,599.153Z" style="fill:rgb(255,166,48);"/>
            </g>
            <g transform="matrix(1.04373,2.9937e-16,-2.74652e-16,1.13192,767.205,-815.996)">
                <text x="1171.58px" y="1474.94px" style="font-family:'Nunito-Light', 'Nunito';font-weight:300;font-size:41.667px;fill:rgb(64,63,73);">r<tspan x="1185.58px " y="1474.94px ">e</tspan>sponder</text>
                <g transform="matrix(41.6667,0,0,41.6667,1432.53,1516.61)">
                </g>
                <text x="1171.58px" y="1516.61px" style="font-family:'Nunito-Light', 'Nunito';font-weight:300;font-size:41.667px;fill:rgb(64,63,73);">aut<tspan x="1230.45px " y="1516.61px ">h</tspan>ent<tspan x="1313.16px 1322.41px 1341.33px 1363.08px 1377.16px " y="1516.61px 1516.61px 1516.61px 1516.61px 1516.61px ">icati</tspan>on</text>
            </g>
            <g transform="matrix(1.04373,1.80409e-17,1.85964e-17,1.13192,767.205,-611.456)">
                <text x="1171.58px" y="1454.11px" style="font-family:'Nunito-Light', 'Nunito';font-weight:300;font-size:41.667px;fill:rgb(64,63,73);">init<tspan x="1227.49px " y="1454.11px ">i</tspan>at<tspan x="1272.24px " y="1454.11px ">o</tspan>r</text>
                <text x="1171.58px" y="1495.78px" style="font-family:'Nunito-Light', 'Nunito';font-weight:300;font-size:41.667px;fill:rgb(64,63,73);">aut<tspan x="1230.45px " y="1495.78px ">h</tspan>ent<tspan x="1313.16px 1322.41px 1341.33px 1363.08px 1377.16px " y="1495.78px 1495.78px 1495.78px 1495.78px 1495.78px ">icati</tspan>on,</text>
                <g transform="matrix(41.6667,0,0,41.6667,1464.49,1537.44)">
                </g>
                <text x="1171.58px" y="1537.44px" style="font-family:'Nunito-Light', 'Nunito';font-weight:300;font-size:41.667px;fill:rgb(64,63,73);">f<tspan x="1184.24px 1207.03px 1222.53px 1256.91px 1278.66px 1292.66px " y="1537.44px 1537.44px 1537.44px 1537.44px 1537.44px 1537.44px ">orward</tspan> secr<tspan x="1402.12px " y="1537.44px ">e</tspan>cy</text>
            </g>
            <g transform="matrix(1.04373,1.80409e-17,1.85964e-17,1.13192,705.967,-92.9691)">
                <text x="1171.58px" y="1474.94px" style="font-family:'Nunito-Light', 'Nunito';font-weight:300;font-size:41.667px;fill:rgb(64,63,73);">ackno<tspan x="1278.49px 1313.28px 1324.95px " y="1474.94px 1474.94px 1474.94px ">wle</tspan>dges</text>
                <g transform="matrix(41.6667,0,0,41.6667,1314.2,1516.61)">
                </g>
                <text x="1171.58px" y="1516.61px" style="font-family:'Nunito-Light', 'Nunito';font-weight:300;font-size:41.667px;fill:rgb(64,63,73);">InitC<tspan x="1254.78px " y="1516.61px ">o</tspan>nf</text>
            </g>
            <g transform="matrix(1.04373,1.72621e-17,1.94353e-17,1.13192,767.205,-321.469)">
                <text x="1171.58px" y="1472.39px" style="font-family:'Nunito-Light', 'Nunito';font-weight:300;font-size:41.667px;fill:rgb(64,63,73);">OSK handed</text>
                <g transform="matrix(41.6667,0,0,41.6667,1422.78,1514.06)">
                </g>
                <text x="1171.58px" y="1514.06px" style="font-family:'Nunito-Light', 'Nunito';font-weight:300;font-size:41.667px;fill:rgb(64,63,73);">t<tspan x="1185.33px " y="1514.06px ">o</tspan> W<tspan x="1264.74px 1273.99px 1287.99px " y="1514.06px 1514.06px 1514.06px ">ire</tspan>Guar<tspan x="1398.83px " y="1514.06px ">d</tspan></text>
            </g>
            <g transform="matrix(1.04373,0,0,1.13192,-159.675,-1425.03)">
                <g transform="matrix(33.3333,0,0,33.3333,1376.21,1461.44)">
                </g>
                <text x="1171.58px" y="1461.44px" style="font-family:'Nunito-Medium', 'Nunito';font-weight:500;font-size:33.333px;fill:rgb(64,63,73);">Init<tspan x="1219.48px " y="1461.44px ">i</tspan>at<tspan x="1256.91px " y="1461.44px ">o</tspan>r Stat<tspan x="1358.41px " y="1461.44px ">e</tspan></text>
            </g>
            <g transform="matrix(1.04373,0,0,1.13192,-159.675,-1369.01)">
                <g transform="matrix(33.3333,0,0,33.3333,1422.81,1461.44)">
                </g>
                <text x="1171.58px" y="1461.44px" style="font-family:'Nunito-Medium', 'Nunito';font-weight:500;font-size:33.333px;fill:rgb(64,63,73);">R<tspan x="1193.61px " y="1461.44px ">e</tspan>sponder Stat<tspan x="1405.01px " y="1461.44px ">e</tspan></text>
            </g>
            <g transform="matrix(1.04373,0,0,1.13192,-1040.69,-1406.95)">
                <g transform="matrix(50,0,0,50,1434.05,1476.14)">
                </g>
                <text x="1257.1px" y="1476.14px" style="font-family:'Nunito-SemiBold', 'Nunito';font-weight:600;font-size:50px;fill:white;">Init<tspan x="1330.14px " y="1476.14px ">i</tspan>at<tspan x="1387.14px " y="1476.14px ">o</tspan>r</text>
            </g>
            <g transform="matrix(1.04373,0,0,1.13192,486.326,-1406.95)">
                <g transform="matrix(50,0,0,50,1468.55,1476.14)">
                </g>
                <text x="1222.6px" y="1476.14px" style="font-family:'Nunito-SemiBold', 'Nunito';font-weight:600;font-size:50px;fill:white;">R<tspan x="1255.85px " y="1476.14px ">e</tspan>sponder</text>
            </g>
            <g transform="matrix(1.29981,-1.40964,1.29981,1.40964,-996.095,-284.091)">
                <path d="M735.267,1542.91L717.276,1524.92L711.619,1548.57L735.267,1542.91Z" style="fill:rgb(179,178,182);"/>
                <path d="M736.092,1546.36L712.445,1552.02L708.168,1547.74L713.825,1524.09L719.785,1522.41L737.776,1540.4L736.092,1546.36ZM735.267,1542.91L717.276,1524.92L711.619,1548.57L735.267,1542.91Z" style="fill:white;"/>
            </g>
            <g transform="matrix(1.29981,-1.40964,1.29981,1.40964,-996.095,-79.5508)">
                <path d="M735.267,1542.91L717.276,1524.92L711.619,1548.57L735.267,1542.91Z" style="fill:rgb(179,178,182);"/>
                <path d="M736.092,1546.36L712.445,1552.02L708.168,1547.74L713.825,1524.09L719.785,1522.41L737.776,1540.4L736.092,1546.36ZM735.267,1542.91L717.276,1524.92L711.619,1548.57L735.267,1542.91Z" style="fill:white;"/>
            </g>
            <g transform="matrix(1.29981,-1.40964,1.29981,1.40964,-996.095,207.55)">
                <path d="M735.267,1542.91L717.276,1524.92L711.619,1548.57L735.267,1542.91Z" style="fill:rgb(179,178,182);"/>
                <path d="M736.092,1546.36L712.445,1552.02L708.168,1547.74L713.825,1524.09L719.785,1522.41L737.776,1540.4L736.092,1546.36ZM735.267,1542.91L717.276,1524.92L711.619,1548.57L735.267,1542.91Z" style="fill:white;"/>
            </g>
            <g transform="matrix(1.04373,2.04033e-17,1.82707e-17,1.13192,287.154,-312.768)">
                <g transform="matrix(41.6667,0,0,41.6667,1473.76,1457.69)">
                </g>
                <text x="1274.85px" y="1457.69px" style="font-family:'Nunito-Light', 'Nunito';font-weight:300;font-size:41.667px;fill:rgb(64,63,73);">handshak<tspan x="1451.8px " y="1457.69px ">e</tspan></text>
            </g>
            <g transform="matrix(1.04373,4.8711e-17,3.06091e-17,1.13192,312.355,-241.08)">
                <g transform="matrix(41.6667,0,0,41.6667,1449.62,1457.69)">
                </g>
                <text x="1249.16px" y="1457.69px" style="font-family:'Nunito-Light', 'Nunito';font-weight:300;font-size:41.667px;fill:rgb(64,63,73);">l<tspan x="1262.7px 1273.62px 1296.24px 1319.87px 1332.03px 1357.66px 1382.66px 1406.07px 1427.66px " y="1457.69px 1457.69px 1457.69px 1457.69px 1457.69px 1457.69px 1457.69px 1457.69px 1457.69px ">ive phase</tspan></text>
            </g>
            <g transform="matrix(1.04373,0,0,1.24761,-135.752,-334.388)">
                <g transform="matrix(1,-0,-0,0.90727,299.807,410.028)">
                    <path d="M1593.36,999.66L1602.74,980.91L1612.11,999.66C1607.42,994.973 1598.05,994.973 1593.36,999.66Z" style="fill:rgb(179,178,182);"/>
                    <path d="M1602.74,1027.14L1602.74,995.91" style="fill:none;stroke:rgb(179,178,182);stroke-width:6.25px;stroke-linecap:round;"/>
                </g>
            </g>
            <g transform="matrix(-1.04373,1.52788e-16,-1.2782e-16,-1.24761,3835.73,3054.11)">
                <g transform="matrix(-1,-1.22465e-16,1.11109e-16,-0.90727,3505.28,2305.97)">
                    <path d="M1612.11,1090.07L1602.74,1108.82L1593.36,1090.07C1598.05,1094.75 1607.42,1094.75 1612.11,1090.07Z" style="fill:rgb(179,178,182);"/>
                    <path d="M1602.74,1062.59L1602.74,1093.82" style="fill:none;stroke:rgb(179,178,182);stroke-width:6.25px;stroke-linecap:round;"/>
                </g>
            </g>
        </g>
    </g>
</svg>
